<?xml version="1.0" encoding="utf-8"?>
<!-- Generator: Adobe Illustrator 26.3.1, SVG Export Plug-In . SVG Version: 6.00 Build 0)  -->
<svg version="1.1" id="path-01" xmlns="http://www.w3.org/2000/svg" xmlns:xlink="http://www.w3.org/1999/xlink" x="0px" y="0px"
	 viewBox="0 0 261.8 300" style="enable-background:new 0 0 261.8 300;" xml:space="preserve">
<style type="text/css">
	.st0{fill:#231F20;}
</style>
<g>
	<path class="st0" d="M52.1,32.4c-1.1-0.5-2.4-0.5-3.6,0.1c-2.1,1.1-3,3.6-1.9,5.7c1.1,2.1,3.6,3,5.7,1.9c1.5-0.7,2.3-2.3,2.3-3.8
		C103,2.5,172,4.7,218,41.8c15.7,12.3,28.7,28,37.9,45.9c-8.8-18-21.6-34.1-37.2-46.8C172.6,2.1,102.1-1.1,52.1,32.4z"/>
	<path class="st0" d="M23.8,52.2c1.8-0.9,2.6-2.9,2.2-4.7c51.5-54.9,141.1-60.7,199.6-13c-58.5-49.7-149.5-44.9-203,9.7
		c-0.9-0.2-1.8-0.1-2.6,0.3c-2.1,1.1-3,3.6-1.9,5.7C19.1,52.4,21.7,53.2,23.8,52.2z"/>
	<path class="st0" d="M210.2,267.6c1.1,0.5,2.4,0.5,3.6-0.1c2.1-1.1,3-3.6,1.9-5.7c-1.1-2.1-3.6-3-5.7-1.9c-1.5,0.7-2.3,2.3-2.3,3.8
		c-48.3,33.7-117.3,31.6-163.3-5.5c-15.7-12.3-28.7-28-37.9-45.9c8.8,18,21.6,34.1,37.2,46.8C89.8,297.9,160.2,301.1,210.2,267.6z"
		/>
	<path class="st0" d="M238.5,247.8c-1.8,0.9-2.6,2.9-2.2,4.7c-51.5,54.9-141.1,60.7-199.6,13c58.5,49.7,149.5,44.9,203-9.7
		c0.9,0.2,1.8,0.1,2.6-0.3c2.1-1.1,3-3.6,1.9-5.7C243.2,247.6,240.6,246.8,238.5,247.8z"/>
	<path class="st0" d="M147.2,30.8C75.4,19.7,9,77.1,8.3,149.3c-0.7,0.6-1.2,1.4-1.3,2.3c-0.3,2,1.1,3.9,3.2,4.1
		c2,0.3,3.9-1.1,4.1-3.2c0.2-1.3-0.4-2.4-1.3-3.2c-0.1-11.8,1.7-23.7,5.1-35C33.4,59.9,91.2,23,147.2,30.8z"/>
	<path class="st0" d="M8.9,178.9c0.2-1.6-0.6-3-2-3.7C-7.4,112,32.2,44.9,94.5,26.4c-63.9,17.3-105.2,85-92.1,149.7
		c-0.4,0.5-0.7,1.1-0.8,1.7c-0.3,2,1.1,3.9,3.2,4.1S8.7,180.9,8.9,178.9z"/>
	<path class="st0" d="M253.6,150.7c0.7-0.6,1.2-1.4,1.3-2.3c0.3-2-1.1-3.9-3.2-4.1c-2-0.3-3.9,1.1-4.1,3.2c-0.2,1.3,0.4,2.4,1.3,3.2
		c0.1,11.8-1.7,23.7-5.1,35c-15.3,54.5-73.1,91.4-129.1,83.7C186.5,280.3,252.8,222.9,253.6,150.7z"/>
	<path class="st0" d="M252.9,121.1c-0.2,1.6,0.6,3,2,3.7c14.3,63.2-25.3,130.3-87.5,148.7c63.9-17.3,105.2-85,92.1-149.7
		c0.4-0.5,0.7-1.1,0.8-1.7c0.3-2-1.1-3.9-3.2-4.1C255,117.7,253.2,119.1,252.9,121.1z"/>
</g>
</svg>
